<svg width="1083" height="351" viewBox="0 0 1083 351" fill="none" xmlns="http://www.w3.org/2000/svg">
<path d="M343.571 114.133H295.789V304.316H343.571V114.133Z" fill="#F6F6F6"/>
<path d="M335.766 100.497H303.596V180.425H335.766V100.497Z" fill="#F6F6F6"/>
<path d="M328.598 91.8389H310.751V136.167H328.598V91.8389Z" fill="#F6F6F6"/>
<path d="M325.76 114.618H313.602V84.4111H317.978H322.33H325.76V114.618Z" fill="#F6F6F6"/>
<path d="M318.876 101.466H317.552V71.2593H318.037H318.498H318.876V101.466Z" fill="#F6F6F6"/>
<path d="M321.798 91.0228H320.474V60.8159H320.947H321.42H321.798V91.0228Z" fill="#F6F6F6"/>
<path d="M344.837 113.637H294.512V115.659H344.837V113.637Z" fill="#F6F6F6"/>
<path d="M336.924 99.5146H302.412V101.466H336.924V99.5146Z" fill="#F6F6F6"/>
<path d="M329.343 91.0229H309.449V92.5132H329.343V91.0229Z" fill="#F6F6F6"/>
<path d="M308.042 103.737H306.552V112.111H308.042V103.737Z" fill="#E3E3E3"/>
<path d="M312.182 103.737H310.691V112.111H312.182V103.737Z" fill="#E3E3E3"/>
<path d="M316.31 103.737H314.819V112.111H316.31V103.737Z" fill="#E3E3E3"/>
<path d="M320.449 103.737H318.959V112.111H320.449V103.737Z" fill="#E3E3E3"/>
<path d="M324.588 103.737H323.098V112.111H324.588V103.737Z" fill="#E3E3E3"/>
<path d="M328.728 103.737H327.237V112.111H328.728V103.737Z" fill="#E3E3E3"/>
<path d="M332.867 103.737H331.377V112.111H332.867V103.737Z" fill="#E3E3E3"/>
<path d="M303.595 121.714H299.976V131.649H303.595V121.714Z" fill="#E3E3E3"/>
<path d="M310.75 121.714H307.131V131.649H310.75V121.714Z" fill="#E3E3E3"/>
<path d="M317.906 121.714H314.287V131.649H317.906V121.714Z" fill="#E3E3E3"/>
<path d="M325.062 121.714H321.442V131.649H325.062V121.714Z" fill="#E3E3E3"/>
<path d="M332.205 121.714H328.598V131.649H332.205V121.714Z" fill="#E3E3E3"/>
<path d="M339.361 121.714H335.754V131.649H339.361V121.714Z" fill="#E3E3E3"/>
<path d="M303.595 137.196H299.976V147.131H303.595V137.196Z" fill="#E3E3E3"/>
<path d="M310.75 137.196H307.131V147.131H310.75V137.196Z" fill="#E3E3E3"/>
<path d="M317.906 137.196H314.287V147.131H317.906V137.196Z" fill="#E3E3E3"/>
<path d="M325.062 137.196H321.442V147.131H325.062V137.196Z" fill="#E3E3E3"/>
<path d="M332.205 137.196H328.598V147.131H332.205V137.196Z" fill="#E3E3E3"/>
<path d="M339.361 137.196H335.754V147.131H339.361V137.196Z" fill="#E3E3E3"/>
<path d="M303.595 152.69H299.976V162.625H303.595V152.69Z" fill="#E3E3E3"/>
<path d="M310.75 152.69H307.131V162.625H310.75V152.69Z" fill="#E3E3E3"/>
<path d="M317.906 152.69H314.287V162.625H317.906V152.69Z" fill="#E3E3E3"/>
<path d="M325.062 152.69H321.442V162.625H325.062V152.69Z" fill="#E3E3E3"/>
<path d="M332.205 152.69H328.598V162.625H332.205V152.69Z" fill="#E3E3E3"/>
<path d="M339.361 152.69H335.754V162.625H339.361V152.69Z" fill="#E3E3E3"/>
<path d="M303.595 168.172H299.976V178.107H303.595V168.172Z" fill="#E3E3E3"/>
<path d="M310.75 168.172H307.131V178.107H310.75V168.172Z" fill="#E3E3E3"/>
<path d="M317.906 168.172H314.287V178.107H317.906V168.172Z" fill="#E3E3E3"/>
<path d="M325.062 168.172H321.442V178.107H325.062V168.172Z" fill="#E3E3E3"/>
<path d="M332.205 168.172H328.598V178.107H332.205V168.172Z" fill="#E3E3E3"/>
<path d="M339.361 168.172H335.754V178.107H339.361V168.172Z" fill="#E3E3E3"/>
<path d="M303.595 183.654H299.976V193.589H303.595V183.654Z" fill="#E3E3E3"/>
<path d="M310.75 183.654H307.131V193.589H310.75V183.654Z" fill="#E3E3E3"/>
<path d="M317.906 183.654H314.287V193.589H317.906V183.654Z" fill="#E3E3E3"/>
<path d="M325.062 183.654H321.442V193.589H325.062V183.654Z" fill="#E3E3E3"/>
<path d="M332.205 183.654H328.598V193.589H332.205V183.654Z" fill="#E3E3E3"/>
<path d="M339.361 183.654H335.754V193.589H339.361V183.654Z" fill="#E3E3E3"/>
<path d="M303.595 199.147H299.976V209.082H303.595V199.147Z" fill="#B5C3C2"/>
<path d="M310.75 199.147H307.131V209.082H310.75V199.147Z" fill="#B5C3C2"/>
<path d="M317.906 199.147H314.287V209.082H317.906V199.147Z" fill="#B5C3C2"/>
<path d="M325.062 199.147H321.442V209.082H325.062V199.147Z" fill="#E3E3E3"/>
<path d="M332.205 199.147H328.598V209.082H332.205V199.147Z" fill="#E3E3E3"/>
<path d="M339.361 199.147H335.754V209.082H339.361V199.147Z" fill="#E3E3E3"/>
<path d="M303.595 214.629H299.976V224.564H303.595V214.629Z" fill="#B5C3C2"/>
<path opacity="0.29" d="M310.75 214.629H307.131V224.564H310.75V214.629Z" fill="#B5C3C2"/>
<path opacity="0.29" d="M317.906 214.629H314.287V224.564H317.906V214.629Z" fill="#B5C3C2"/>
<path d="M325.062 214.629H321.442V224.564H325.062V214.629Z" fill="#E3E3E3"/>
<path d="M332.205 214.629H328.598V224.564H332.205V214.629Z" fill="#E3E3E3"/>
<path d="M339.361 214.629H335.754V224.564H339.361V214.629Z" fill="#E3E3E3"/>
<path d="M303.595 230.124H299.976V240.058H303.595V230.124Z" fill="#B5C3C2"/>
<path d="M310.75 230.124H307.131V240.058H310.75V230.124Z" fill="#B5C3C2"/>
<path d="M317.906 230.124H314.287V240.058H317.906V230.124Z" fill="#B5C3C2"/>
<path d="M325.062 230.124H321.442V240.058H325.062V230.124Z" fill="#B5C3C2"/>
<path opacity="0.29" d="M332.205 230.124H328.598V240.058H332.205V230.124Z" fill="#B5C3C2"/>
<path d="M339.361 230.124H335.754V240.058H339.361V230.124Z" fill="#B5C3C2"/>
<path d="M303.595 245.605H299.976V255.54H303.595V245.605Z" fill="#B5C3C2"/>
<path opacity="0.29" d="M310.75 245.605H307.131V255.54H310.75V245.605Z" fill="#B5C3C2"/>
<path d="M317.906 245.605H314.287V255.54H317.906V245.605Z" fill="#B5C3C2"/>
<path d="M325.062 245.605H321.442V255.54H325.062V245.605Z" fill="#B5C3C2"/>
<path d="M332.205 245.605H328.598V255.54H332.205V245.605Z" fill="#B5C3C2"/>
<path d="M339.361 245.605H335.754V255.54H339.361V245.605Z" fill="#B5C3C2"/>
<path d="M303.595 261.099H299.976V271.034H303.595V261.099Z" fill="#B5C3C2"/>
<path d="M310.75 261.099H307.131V271.034H310.75V261.099Z" fill="#B5C3C2"/>
<path d="M317.906 261.099H314.287V271.034H317.906V261.099Z" fill="#B5C3C2"/>
<path opacity="0.29" d="M325.062 261.099H321.442V271.034H325.062V261.099Z" fill="#B5C3C2"/>
<path d="M332.205 261.099H328.598V271.034H332.205V261.099Z" fill="#B5C3C2"/>
<path opacity="0.29" d="M339.361 261.099H335.754V271.034H339.361V261.099Z" fill="#B5C3C2"/>
<path opacity="0.29" d="M303.595 276.581H299.976V286.516H303.595V276.581Z" fill="#B5C3C2"/>
<path d="M310.75 276.581H307.131V286.516H310.75V276.581Z" fill="#B5C3C2"/>
<path opacity="0.29" d="M317.906 276.581H314.287V286.516H317.906V276.581Z" fill="#B5C3C2"/>
<path d="M325.062 276.581H321.442V286.516H325.062V276.581Z" fill="#B5C3C2"/>
<path d="M332.205 276.581H328.598V286.516H332.205V276.581Z" fill="#B5C3C2"/>
<path d="M339.361 276.581H335.754V286.516H339.361V276.581Z" fill="#B5C3C2"/>
<path d="M233.828 121.36H157.021V281.572H233.828V121.36Z" fill="#F6F6F6"/>
<path d="M236.004 118.604H154.833V123.134H236.004V118.604Z" fill="#F6F6F6"/>
<path d="M231.249 112.809H159.6V134.334H231.249V112.809Z" fill="#F6F6F6"/>
<path d="M193.461 104.009H165.087V127.522H193.461V104.009Z" fill="#F6F6F6"/>
<path d="M181.503 110.633H165.087V98.2495H176.855L181.503 110.633Z" fill="#F6F6F6"/>
<path d="M173.295 87.9717H171.698V115.541H173.295V87.9717Z" fill="#F6F6F6"/>
<path d="M173.923 86.5522C173.923 87.3446 173.284 87.9833 172.492 87.9833C171.699 87.9833 171.061 87.3446 171.061 86.5522C171.061 85.7598 171.699 85.1211 172.492 85.1211C173.284 85.1211 173.923 85.7598 173.923 86.5522Z" fill="#F6F6F6"/>
<path d="M869.885 293.778H785.805L775.314 58.2139L869.885 77.8471V293.778Z" fill="#F6F6F6"/>
<path d="M503.062 159.242V80.4964H489.874V59.3966H485.167V28.4564H459.206V5.7244H456.9V28.4564H451.814V0H449.508V28.4564H433.103V80.4964H424.623V159.242H417.361V302.695H508.171V159.242H503.062Z" fill="#F6F6F6"/>
<path d="M1054.24 290.856H49.6631V314.748H1054.24V290.856Z" fill="#EDEDED"/>
<path d="M640.991 308.893H596.509L613.836 219.822H640.991V308.893Z" fill="#EDEDED"/>
<path d="M1068.38 312.358H13.625V350.028H1068.38V312.358Z" fill="#EDEDED"/>
<path d="M604.539 144.056V104.589H590.252V89.5561H582.611V76.9364H579.927V55.2925H579.241V76.9364H576.556V89.5561H568.915V104.589H554.734V144.056H551.79V215.718H529.814V297.409H551.79H573.765H607.378V144.056H604.539Z" fill="#EDEDED"/>
<path d="M686.621 189.402H617.49V190.656H620.613V307.556H683.498V190.656H686.621V189.402Z" fill="#EDEDED"/>
<path d="M371.376 218.521H310.075V315.906H371.376V218.521Z" fill="#EDEDED"/>
<path d="M300.838 268.408H195.422V315.895H300.838V268.408Z" fill="#EDEDED"/>
<path d="M275.067 162.317H251.921V278.934H275.067V162.317Z" fill="#EDEDED"/>
<path d="M258.237 131.2H257.03V194.618H258.237V131.2Z" fill="#EDEDED"/>
<path d="M262.152 136.014H260.945V199.432H262.152V136.014Z" fill="#EDEDED"/>
<path d="M267.852 155.103H253.707V170.727H267.852V155.103Z" fill="#EDEDED"/>
<path d="M336.983 235.954H296.711V315.906H336.983V235.954Z" fill="#EDEDED"/>
<path d="M456.9 151.342H381.3V315.895H456.9V151.342Z" fill="#EDEDED"/>
<path d="M449.471 145.688H388.727V173.092H449.471V145.688Z" fill="#EDEDED"/>
<path d="M462.766 154.784H375.445V156.712H462.766V154.784Z" fill="#EDEDED"/>
<path d="M403.227 232.796H367.604V315.894H403.227V232.796Z" fill="#EDEDED"/>
<path d="M153.34 229.638H112.465V315.895H153.34V229.638Z" fill="#EDEDED"/>
<path d="M207.143 206.197H125.688V315.895H207.143V206.197Z" fill="#EDEDED"/>
<path d="M209.236 201.986H120.934V206.197H209.236V201.986Z" fill="#EDEDED"/>
<path d="M165.084 190.561H129.295V212.808H165.084V190.561Z" fill="#EDEDED"/>
<path d="M182.79 190.561H176.782V204.091H182.79V190.561Z" fill="#EDEDED"/>
<path d="M195.422 190.561H188.811V204.091H195.422V190.561Z" fill="#EDEDED"/>
<path d="M132.915 282.53H90.2305V315.895H132.915V282.53Z" fill="#EDEDED"/>
<path d="M94.3222 268.408H74.1094V315.895H94.3222V268.408Z" fill="#EDEDED"/>
<path d="M84.1987 299.218H49.6631V315.895H84.1987V299.218Z" fill="#EDEDED"/>
<path d="M875.076 278.935H449.472V315.907H875.076V278.935Z" fill="#EDEDED"/>
<path d="M841.096 176.593C838.411 176.593 836.223 178.651 835.999 181.276L830.014 181.087C830.026 180.496 830.038 179.916 830.038 179.325C830.038 171.874 828.749 164.612 826.288 157.811L831.291 155.966C832.072 157.776 833.882 159.053 835.987 159.053C838.814 159.053 841.096 156.759 841.096 153.944C841.096 151.129 838.802 148.834 835.987 148.834C833.172 148.834 830.877 151.129 830.877 153.944C830.877 154.464 830.96 154.973 831.102 155.446L826.099 157.291C823.249 149.65 818.896 142.578 813.208 136.463L817.122 132.796C818.045 133.672 819.287 134.216 820.659 134.216C823.485 134.216 825.768 131.921 825.768 129.106C825.768 126.291 823.474 123.997 820.659 123.997C817.844 123.997 815.549 126.291 815.549 129.106C815.549 130.36 815.999 131.507 816.744 132.394L812.829 136.061C812.427 135.635 812.013 135.209 811.599 134.795C805.674 128.87 798.766 124.269 791.256 121.135L793.409 115.895C793.894 116.049 794.414 116.132 794.958 116.132C797.785 116.132 800.067 113.837 800.067 111.022C800.067 108.208 797.773 105.913 794.958 105.913C792.143 105.913 789.849 108.208 789.849 111.022C789.849 113.104 791.091 114.902 792.888 115.694L790.736 120.922C784.006 118.202 776.803 116.64 769.376 116.38L769.612 109.213C769.612 109.213 769.719 109.213 769.778 109.213C772.605 109.213 774.887 106.918 774.887 104.104C774.887 101.289 772.593 98.9941 769.778 98.9941C766.963 98.9941 764.668 101.289 764.668 104.104C764.668 106.682 766.573 108.811 769.056 109.166L768.82 116.368C768.228 116.357 767.649 116.345 767.057 116.345C759.902 116.345 752.936 117.527 746.36 119.81L744.302 113.956C746.159 113.187 747.472 111.365 747.472 109.225C747.472 106.398 745.177 104.115 742.362 104.115C739.547 104.115 737.253 106.41 737.253 109.225C737.253 112.04 739.547 114.334 742.362 114.334C742.847 114.334 743.32 114.263 743.77 114.133L745.828 119.988C737.868 122.826 730.511 127.285 724.172 133.175L720.434 129.189C721.274 128.278 721.783 127.06 721.783 125.736C721.783 122.909 719.488 120.626 716.673 120.626C713.858 120.626 711.564 122.921 711.564 125.736C711.564 128.55 713.858 130.845 716.673 130.845C717.962 130.845 719.133 130.372 720.032 129.579L723.758 133.565C723.332 133.967 722.906 134.381 722.492 134.795C717.217 140.07 712.995 146.114 709.932 152.678L705.177 150.49C705.355 149.982 705.449 149.426 705.449 148.858C705.449 146.031 703.155 143.749 700.34 143.749C697.525 143.749 695.23 146.043 695.23 148.858C695.23 151.673 697.525 153.967 700.34 153.967C702.398 153.967 704.16 152.761 704.976 151.01L709.695 153.187C706.301 160.602 704.385 168.669 704.089 177.03L697.998 176.829C697.927 174.074 695.668 171.862 692.889 171.862C690.109 171.862 687.779 174.156 687.779 176.971C687.779 179.786 690.074 182.081 692.889 182.081C695.704 182.081 697.762 180.023 697.986 177.397L704.077 177.598C704.065 178.19 704.054 178.769 704.054 179.36C704.054 186.812 705.343 194.074 707.803 200.874L702.8 202.719C702.019 200.91 700.21 199.632 698.104 199.632C695.278 199.632 692.995 201.927 692.995 204.742C692.995 207.557 695.29 209.851 698.104 209.851C700.919 209.851 703.214 207.557 703.214 204.742C703.214 204.221 703.131 203.713 702.989 203.24L707.992 201.395C710.842 209.047 715.195 216.108 720.884 222.222L716.969 225.889C716.046 225.014 714.805 224.47 713.433 224.47C710.606 224.47 708.323 226.764 708.323 229.579C708.323 232.394 710.618 234.688 713.433 234.688C716.248 234.688 718.542 232.394 718.542 229.579C718.542 228.325 718.093 227.178 717.347 226.291L721.262 222.625C721.664 223.05 722.078 223.476 722.492 223.89C726.49 227.888 730.925 231.27 735.692 234.014L704.858 290.856H699.323V292.476H696.614V295.705H837.524V292.476H834.816V290.856H829.281L798.447 234.014C802.551 231.649 806.419 228.798 809.967 225.51L814.97 230.845C813.893 231.779 813.219 233.163 813.219 234.7C813.219 237.527 815.514 239.81 818.329 239.81C821.144 239.81 823.438 237.515 823.438 234.7C823.438 231.885 821.144 229.591 818.329 229.591C817.241 229.591 816.247 229.934 815.419 230.502L810.381 225.132C810.807 224.73 811.232 224.316 811.646 223.902C816.921 218.627 821.144 212.583 824.207 206.019L829.778 208.586C829.671 208.988 829.624 209.402 829.624 209.839C829.624 212.666 831.918 214.949 834.733 214.949C837.548 214.949 839.843 212.654 839.843 209.839C839.843 207.024 837.548 204.73 834.733 204.73C832.545 204.73 830.676 206.114 829.943 208.042L824.443 205.499C827.838 198.083 829.754 190.017 830.05 181.655L836.046 181.844C836.117 184.6 838.376 186.823 841.155 186.823C843.935 186.823 846.265 184.529 846.265 181.714C846.265 178.899 843.97 176.605 841.155 176.605L841.096 176.593ZM828.335 179.325C828.335 179.893 828.335 180.46 828.311 181.028L810.665 180.46C810.665 180.082 810.676 179.703 810.676 179.325C810.676 174.121 809.766 169.13 808.086 164.505L824.68 158.391C827.081 165.014 828.335 172.075 828.335 179.325ZM809.813 180.437L770.452 179.159C770.44 178.899 770.393 178.651 770.334 178.414L807.294 164.801C808.938 169.343 809.837 174.227 809.837 179.325C809.837 179.692 809.837 180.058 809.825 180.437H809.813ZM724.219 178.225L763.58 179.502C763.592 179.763 763.639 180.011 763.699 180.248L726.738 193.861C725.094 189.319 724.195 184.434 724.195 179.337C724.195 178.97 724.195 178.604 724.207 178.225H724.219ZM769.707 177.196L798.423 150.277C802.149 154.298 805.118 159.041 807.081 164.269L770.121 177.87C770.002 177.622 769.861 177.397 769.695 177.184L769.707 177.196ZM769.317 176.782C769.092 176.581 768.843 176.404 768.571 176.274L783.533 139.846C789.044 142.164 793.976 145.594 798.033 149.875L769.317 176.794V176.782ZM768.051 176.049C767.85 175.978 767.625 175.942 767.412 175.907L768.69 136.546C773.74 136.735 778.554 137.811 783.012 139.609L768.051 176.037V176.049ZM766.845 175.895C766.608 175.907 766.372 175.942 766.147 176.001L753.054 138.864C757.43 137.35 762.126 136.522 767.022 136.522C767.389 136.522 767.755 136.522 768.134 136.534L766.856 175.895H766.845ZM765.615 176.191C765.354 176.309 765.106 176.463 764.881 176.628L737.962 147.912C742.137 144.056 747.069 141.016 752.51 139.041L765.603 176.179L765.615 176.191ZM764.467 177.019C764.302 177.208 764.148 177.409 764.03 177.634L728.276 161.135C730.559 156.297 733.716 151.945 737.56 148.302L764.479 177.03L764.467 177.019ZM763.781 178.142C763.687 178.391 763.628 178.651 763.592 178.923L724.231 177.646C724.456 171.957 725.78 166.552 728.016 161.631L763.77 178.13L763.781 178.142ZM763.9 180.768C763.994 180.969 764.101 181.158 764.231 181.324L763.994 181.75L735.597 208.361C731.871 204.34 728.903 199.597 726.939 194.369L763.9 180.768ZM763.131 183.346L745.307 216.202C741.865 214.168 738.731 211.661 735.987 208.787L763.131 183.346ZM765.07 182.152C765.189 182.234 765.319 182.305 765.449 182.376L750.487 218.804C749.045 218.201 747.649 217.515 746.289 216.758L765.07 182.14V182.152ZM765.969 182.589C766.182 182.66 766.395 182.696 766.608 182.731L765.331 222.092C760.28 221.903 755.467 220.827 751.008 219.029L765.969 182.601V182.589ZM767.01 222.116C766.644 222.116 766.277 222.116 765.898 222.104L767.176 182.743C767.412 182.731 767.649 182.696 767.874 182.637L780.966 219.774C776.59 221.288 771.895 222.116 766.998 222.116H767.01ZM768.418 182.447C768.607 182.365 768.784 182.258 768.95 182.152L787.732 216.77C785.745 217.87 783.663 218.816 781.51 219.597L768.418 182.447ZM771.575 184.6L796.058 210.726C793.823 212.796 791.363 214.629 788.713 216.191L771.575 184.6ZM770.499 182.625L769.79 181.324C769.861 181.217 769.932 181.111 769.991 181.004L805.744 197.504C803.462 202.341 800.304 206.693 796.46 210.336L770.487 182.625H770.499ZM770.239 180.484C770.334 180.236 770.393 179.975 770.428 179.703L809.789 180.981C809.565 186.67 808.24 192.075 806.005 196.995L770.251 180.496L770.239 180.484ZM750.156 219.585L743.438 235.942C741.392 235.091 739.394 234.121 737.442 233.044L745.875 217.492C747.259 218.26 748.69 218.958 750.156 219.573V219.585ZM750.677 219.798C755.218 221.643 760.15 222.731 765.295 222.932L764.716 240.578C757.489 240.318 750.487 238.804 743.947 236.155L750.665 219.798H750.677ZM765.863 222.956C766.241 222.956 766.62 222.968 766.998 222.968C771.989 222.968 776.779 222.128 781.238 220.578L787.117 237.255C780.73 239.467 773.953 240.614 766.987 240.614C766.419 240.614 765.851 240.614 765.283 240.59L765.851 222.944L765.863 222.956ZM781.782 220.389C783.982 219.597 786.111 218.627 788.134 217.503L796.567 233.056C793.704 234.629 790.736 235.978 787.661 237.066L781.782 220.389ZM824.467 157.847L807.873 163.961C805.863 158.627 802.835 153.79 799.038 149.686L811.942 137.598C817.477 143.547 821.7 150.419 824.479 157.858L824.467 157.847ZM810.357 135.954C810.759 136.356 811.161 136.77 811.552 137.184L798.648 149.272C794.509 144.908 789.47 141.407 783.852 139.041L790.57 122.684C797.879 125.724 804.597 130.206 810.357 135.966V135.954ZM790.038 122.459L783.32 138.817C778.778 136.983 773.846 135.883 768.701 135.682L769.269 118.036C776.496 118.296 783.497 119.81 790.038 122.459ZM766.998 118.001C767.566 118.001 768.134 118.001 768.701 118.024L768.122 135.671C767.743 135.671 767.365 135.659 766.987 135.659C761.995 135.659 757.205 136.498 752.735 138.048L746.857 121.371C753.243 119.16 760.02 118.012 766.987 118.012L766.998 118.001ZM746.336 121.549L752.214 138.225C746.655 140.236 741.617 143.335 737.359 147.273L725.272 134.37C731.434 128.633 738.589 124.305 746.324 121.537L746.336 121.549ZM723.64 135.954C724.042 135.552 724.456 135.15 724.87 134.76L736.957 147.663C733.042 151.377 729.813 155.824 727.483 160.756L711.422 153.34C714.402 146.966 718.518 141.087 723.64 135.954ZM711.174 153.861L727.235 161.277C724.952 166.291 723.592 171.815 723.368 177.61L705.721 177.03C706.017 168.905 707.886 161.064 711.174 153.849V153.861ZM705.674 179.313C705.674 178.745 705.674 178.178 705.698 177.61L723.344 178.178C723.344 178.556 723.332 178.935 723.332 179.313C723.332 184.517 724.243 189.508 725.922 194.133L709.329 200.247C706.928 193.624 705.674 186.563 705.674 179.313ZM709.518 200.78L726.111 194.665C728.122 199.999 731.15 204.836 734.946 208.94L722.043 221.028C716.508 215.079 712.285 208.207 709.506 200.768L709.518 200.78ZM723.628 222.672C723.226 222.27 722.823 221.856 722.433 221.442L735.337 209.354C738.14 212.299 741.345 214.866 744.869 216.936L736.425 232.489C731.8 229.827 727.495 226.528 723.628 222.66V222.672ZM827.897 290.844H706.064L736.602 234.558C738.601 235.658 740.659 236.652 742.764 237.527L740.612 242.766C740.127 242.613 739.606 242.53 739.062 242.53C736.236 242.53 733.953 244.824 733.953 247.639C733.953 250.454 736.247 252.749 739.062 252.749C741.877 252.749 744.172 250.454 744.172 247.639C744.172 245.558 742.93 243.76 741.132 242.968L743.285 237.74C750.014 240.46 757.217 242.021 764.645 242.282L764.467 247.639C761.7 247.698 759.476 249.969 759.476 252.749C759.476 255.528 761.771 257.858 764.586 257.858C767.4 257.858 769.695 255.564 769.695 252.749C769.695 250.076 767.649 247.888 765.035 247.651L765.212 242.282C765.804 242.293 766.383 242.305 766.975 242.305C774.13 242.305 781.096 241.122 787.661 238.84L789.494 244.056C787.755 244.872 786.549 246.634 786.549 248.692C786.549 251.519 788.843 253.801 791.658 253.801C794.473 253.801 796.768 251.507 796.768 248.692C796.768 245.877 794.473 243.583 791.658 243.583C791.079 243.583 790.535 243.677 790.014 243.855L788.181 238.662C791.339 237.539 794.39 236.155 797.335 234.535L827.873 290.821L827.897 290.844ZM797.536 232.5L789.092 216.948C791.8 215.351 794.319 213.47 796.614 211.353L808.701 224.257C805.26 227.45 801.522 230.218 797.536 232.512V232.5ZM810.333 222.672C809.931 223.074 809.517 223.476 809.103 223.866L797.016 210.963C800.931 207.249 804.16 202.802 806.49 197.87L822.551 205.286C819.571 211.661 815.455 217.539 810.333 222.672ZM822.799 204.765L806.738 197.35C809.021 192.335 810.381 186.812 810.605 181.016L828.252 181.584C827.956 189.709 826.087 197.551 822.799 204.765Z" fill="#EDEDED"/>
<path d="M919.168 219.597H853.444V315.895H919.168V219.597Z" fill="#EDEDED"/>
<path d="M975.265 257.042H909.541V315.35H975.265V257.042Z" fill="#EDEDED"/>
<path d="M691.541 248.479H654.676V297.42H691.541V248.479Z" fill="#95A9A7"/>
<path d="M932.782 128.03H886.301V315.906H932.782V128.03Z" fill="#EDEDED"/>
<path d="M1009.33 315.895H948.015V206.197H994.496L1009.33 315.895Z" fill="#EDEDED"/>
<path d="M922.373 88.7754H920.765V139.834H922.373V88.7754Z" fill="#EDEDED"/>
<path d="M927.778 99.7275H926.17V150.786H927.778V99.7275Z" fill="#EDEDED"/>
<path d="M917.465 106.777H915.856V157.835H917.465V106.777Z" fill="#EDEDED"/>
<path d="M972.356 197.326H950.416V214.606H972.356V197.326Z" fill="#EDEDED"/>
<path d="M969.967 191.164H952.829V200.874H969.967V191.164Z" fill="#EDEDED"/>
<path d="M985.283 202.388H981.072V209.366H985.283V202.388Z" fill="#EDEDED"/>
<path d="M992.781 196.025H986.772V209.367H992.781V196.025Z" fill="#EDEDED"/>
<path d="M710.215 170.407H654.485V350.04H710.215V170.407Z" fill="#E3E3E3"/>
<path d="M714.379 171.472H650.322V173.293H714.379V171.472Z" fill="#E3E3E3"/>
<path d="M712.653 196.699H652.062V198.509H712.653V196.699Z" fill="#E3E3E3"/>
<path d="M712.653 221.134H652.062V222.944H712.653V221.134Z" fill="#E3E3E3"/>
<path d="M712.653 245.569H652.062V247.379H712.653V245.569Z" fill="#E3E3E3"/>
<path d="M712.653 270.005H652.062V271.814H712.653V270.005Z" fill="#E3E3E3"/>
<path d="M712.653 294.452H652.062V296.261H712.653V294.452Z" fill="#E3E3E3"/>
<path d="M712.653 318.887H652.062V320.696H712.653V318.887Z" fill="#E3E3E3"/>
<path d="M716.496 166.504H648.205V171.472H716.496V166.504Z" fill="#E3E3E3"/>
<path opacity="0.4" d="M665.295 179.195H659.5V193.541H665.295V179.195Z" fill="white"/>
<path d="M678.247 179.195H672.451V193.541H678.247V179.195Z" fill="white" fill-opacity="0.6"/>
<path d="M691.198 179.195H685.402V193.541H691.198V179.195Z" fill="white" fill-opacity="0.6"/>
<path d="M704.148 179.195H698.353V193.541H704.148V179.195Z" fill="white" fill-opacity="0.6"/>
<path d="M665.295 202.648H659.5V216.995H665.295V202.648Z" fill="white" fill-opacity="0.6"/>
<path opacity="0.4" d="M678.247 202.648H672.451V216.995H678.247V202.648Z" fill="white"/>
<path d="M691.198 202.648H685.402V216.995H691.198V202.648Z" fill="white" fill-opacity="0.6"/>
<path d="M704.148 202.648H698.353V216.995H704.148V202.648Z" fill="white" fill-opacity="0.6"/>
<path d="M665.295 227.083H659.5V241.43H665.295V227.083Z" fill="white" fill-opacity="0.6"/>
<path d="M678.247 227.083H672.451V241.43H678.247V227.083Z" fill="white" fill-opacity="0.6"/>
<path d="M691.198 227.083H685.402V241.43H691.198V227.083Z" fill="white" fill-opacity="0.6"/>
<path opacity="0.4" d="M704.148 227.083H698.353V241.43H704.148V227.083Z" fill="white"/>
<path d="M665.295 251.53H659.5V265.877H665.295V251.53Z" fill="white" fill-opacity="0.6"/>
<path opacity="0.4" d="M678.247 251.53H672.451V265.877H678.247V251.53Z" fill="white"/>
<path opacity="0.4" d="M691.198 251.53H685.402V265.877H691.198V251.53Z" fill="white"/>
<path d="M704.148 251.53H698.353V265.877H704.148V251.53Z" fill="white" fill-opacity="0.6"/>
<path opacity="0.4" d="M665.295 275.966H659.5V290.312H665.295V275.966Z" fill="white"/>
<path d="M678.247 275.966H672.451V290.312H678.247V275.966Z" fill="white" fill-opacity="0.6"/>
<path d="M691.198 275.966H685.402V290.312H691.198V275.966Z" fill="white" fill-opacity="0.6"/>
<path d="M704.148 275.966H698.353V290.312H704.148V275.966Z" fill="white" fill-opacity="0.6"/>
<path d="M665.295 300.401H659.5V314.747H665.295V300.401Z" fill="white" fill-opacity="0.6"/>
<path d="M678.247 300.401H672.451V314.747H678.247V300.401Z" fill="white" fill-opacity="0.6"/>
<path opacity="0.4" d="M691.198 300.401H685.402V314.747H691.198V300.401Z" fill="white"/>
<path d="M704.148 300.401H698.353V314.747H704.148V300.401Z" fill="white" fill-opacity="0.6"/>
<path d="M665.295 324.836H659.5V339.182H665.295V324.836Z" fill="white" fill-opacity="0.6"/>
<path opacity="0.4" d="M678.247 324.836H672.451V339.182H678.247V324.836Z" fill="white"/>
<path d="M691.198 324.836H685.402V339.182H691.198V324.836Z" fill="white" fill-opacity="0.6"/>
<path opacity="0.4" d="M704.148 324.836H698.353V339.182H704.148V324.836Z" fill="white"/>
<path d="M676.957 159.656H657.998V168.988H676.957V159.656Z" fill="#E3E3E3"/>
<path d="M678.246 159.396H656.721V160.993H678.246V159.396Z" fill="#E3E3E3"/>
<path d="M574.617 350.04H500.377V179.36L574.617 161.206V350.04Z" fill="#E3E3E3"/>
<path d="M503.629 176.356H497.112V350.04H503.629V176.356Z" fill="#E3E3E3"/>
<path d="M522.198 171.46H515.669V350.028H522.198V171.46Z" fill="#E3E3E3"/>
<path d="M540.743 166.386H534.227V350.04H540.743V166.386Z" fill="#E3E3E3"/>
<path d="M559.312 162.235H552.795V350.028H559.312V162.235Z" fill="#E3E3E3"/>
<path d="M577.869 157.835H571.353V350.04H577.869V157.835Z" fill="#E3E3E3"/>
<path opacity="0.4" d="M513.978 190.928H505.32V204.115H513.978V190.928Z" fill="white"/>
<path opacity="0.4" d="M532.547 190.928H523.89V204.115H532.547V190.928Z" fill="white"/>
<path d="M551.104 190.928H542.446V204.115H551.104V190.928Z" fill="white" fill-opacity="0.6"/>
<path opacity="0.4" d="M569.661 190.928H561.003V204.115H569.661V190.928Z" fill="white"/>
<path d="M513.978 213.896H505.32V227.084H513.978V213.896Z" fill="white" fill-opacity="0.6"/>
<path d="M532.547 213.896H523.89V227.084H532.547V213.896Z" fill="white" fill-opacity="0.6"/>
<path opacity="0.4" d="M551.104 213.896H542.446V227.084H551.104V213.896Z" fill="white"/>
<path opacity="0.4" d="M569.661 213.896H561.003V227.084H569.661V213.896Z" fill="white"/>
<path opacity="0.4" d="M513.978 236.865H505.32V250.052H513.978V236.865Z" fill="white"/>
<path opacity="0.4" d="M532.547 236.865H523.89V250.052H532.547V236.865Z" fill="white"/>
<path opacity="0.4" d="M551.104 236.865H542.446V250.052H551.104V236.865Z" fill="white"/>
<path d="M569.661 236.865H561.003V250.052H569.661V236.865Z" fill="white" fill-opacity="0.6"/>
<path opacity="0.4" d="M513.978 259.833H505.32V273.021H513.978V259.833Z" fill="white"/>
<path d="M532.547 259.833H523.89V273.021H532.547V259.833Z" fill="white" fill-opacity="0.6"/>
<path opacity="0.4" d="M551.104 259.833H542.446V273.021H551.104V259.833Z" fill="white"/>
<path opacity="0.4" d="M569.661 259.833H561.003V273.021H569.661V259.833Z" fill="white"/>
<path opacity="0.4" d="M513.978 282.802H505.32V295.989H513.978V282.802Z" fill="white"/>
<path opacity="0.4" d="M532.547 282.802H523.89V295.989H532.547V282.802Z" fill="white"/>
<path d="M551.104 282.802H542.446V295.989H551.104V282.802Z" fill="white" fill-opacity="0.6"/>
<path opacity="0.4" d="M569.661 282.802H561.003V295.989H569.661V282.802Z" fill="white"/>
<path d="M513.978 305.771H505.32V318.958H513.978V305.771Z" fill="white" fill-opacity="0.6"/>
<path d="M532.547 305.771H523.89V318.958H532.547V305.771Z" fill="white" fill-opacity="0.6"/>
<path opacity="0.4" d="M551.104 305.771H542.446V318.958H551.104V305.771Z" fill="white"/>
<path opacity="0.4" d="M569.661 305.771H561.003V318.958H569.661V305.771Z" fill="white"/>
<path opacity="0.4" d="M513.978 328.739H505.32V341.927H513.978V328.739Z" fill="white"/>
<path d="M532.547 328.739H523.89V341.927H532.547V328.739Z" fill="white" fill-opacity="0.6"/>
<path opacity="0.4" d="M551.104 328.739H542.446V341.927H551.104V328.739Z" fill="white"/>
<path d="M569.661 328.739H561.003V341.927H569.661V328.739Z" fill="white" fill-opacity="0.6"/>
<path d="M288.609 187.533V189.307H286.835V194.358H317.906V350.04H266.93V202.483V194.358V189.307H265.085V187.533H288.609Z" fill="#E3E3E3"/>
<path d="M419.112 258.249H375.445V350.04H419.112V258.249Z" fill="#E3E3E3"/>
<path d="M220.638 237.208H185.145V350.04H220.638V237.208Z" fill="#E3E3E3"/>
<path d="M252.276 260.72H213.601V350.04H252.276V260.72Z" fill="#E3E3E3"/>
<path d="M213.613 232.678H197.918V246.184H213.613V232.678Z" fill="#E3E3E3"/>
<path d="M257.492 259.242H216.262V262.542H257.492V259.242Z" fill="#E3E3E3"/>
<path d="M291.483 299.029H248.124V350.04H291.483V299.029Z" fill="#E3E3E3"/>
<path d="M143.251 257.539H107.982V350.04H143.251V257.539Z" fill="#E3E3E3"/>
<path d="M123.772 303.63H77.374V350.028H123.772V303.63Z" fill="#E3E3E3"/>
<path d="M55.3044 296.048H26.2803V350.04H55.3044V296.048Z" fill="#E3E3E3"/>
<path d="M118.261 333.127H49.6631V350.04H118.261V333.127Z" fill="#E3E3E3"/>
<path d="M35.1625 327.663H0V350.04H35.1625V327.663Z" fill="#E3E3E3"/>
<path d="M197.906 315.895H143.252V350.028H197.906V315.895Z" fill="#E3E3E3"/>
<path d="M388.738 335.327H303.594V350.028H388.738V335.327Z" fill="#E3E3E3"/>
<path d="M539.69 335.327H454.546V350.028H539.69V335.327Z" fill="#E3E3E3"/>
<path d="M385.416 292.157H353.056L339.372 342.683H385.416V292.157Z" fill="#E3E3E3"/>
<path d="M401.276 218.627H400.377V274.676H401.276V218.627Z" fill="#E3E3E3"/>
<path d="M406.089 237.598H404.883V270.679H406.089V237.598Z" fill="#E3E3E3"/>
<path d="M414.806 243.464H398.438V259.833H414.806V243.464Z" fill="#E3E3E3"/>
<path d="M417.349 242.187H395.67V243.654H417.349V242.187Z" fill="#E3E3E3"/>
<path d="M464.066 302.695H411.163V350.04H464.066V302.695Z" fill="#E3E3E3"/>
<path d="M487.946 250.573H453.954V341.915H487.946V250.573Z" fill="#E3E3E3"/>
<path d="M640.99 267.746H586.691V350.028H640.99V267.746Z" fill="#E3E3E3"/>
<path d="M631.576 319.715H569.66V350.04H631.576V319.715Z" fill="#E3E3E3"/>
<path d="M678.246 339.183H637.986V350.04H678.246V339.183Z" fill="#E3E3E3"/>
<path d="M765.449 319.715H699.997V350.04H765.449V319.715Z" fill="#E3E3E3"/>
<path d="M726.064 350.04H807.519V240.342H726.064V350.04Z" fill="#E3E3E3"/>
<path d="M723.971 240.342H812.273V236.131H723.971V240.342Z" fill="#E3E3E3"/>
<path d="M768.122 246.941H803.911V224.694H768.122V246.941Z" fill="#E3E3E3"/>
<path d="M750.417 238.225H756.425V224.694H750.417V238.225Z" fill="#E3E3E3"/>
<path d="M737.785 238.225H744.396V224.694H737.785V238.225Z" fill="#E3E3E3"/>
<path d="M863.521 350.04H927.991V189.828H863.521V350.04Z" fill="#E3E3E3"/>
<path d="M861.676 191.602H929.812V187.072H861.676V191.602Z" fill="#E3E3E3"/>
<path d="M865.674 202.791H925.815V181.265H865.674V202.791Z" fill="#E3E3E3"/>
<path d="M897.394 195.978H921.214V172.465H897.394V195.978Z" fill="#E3E3E3"/>
<path d="M907.436 179.089H921.214V166.706H911.339L907.436 179.089Z" fill="#E3E3E3"/>
<path d="M914.32 184.009H915.656V156.439H914.32V184.009Z" fill="#E3E3E3"/>
<path d="M913.799 155.008C913.799 155.801 914.331 156.439 914.993 156.439C915.656 156.439 916.188 155.801 916.188 155.008C916.188 154.216 915.656 153.577 914.993 153.577C914.331 153.577 913.799 154.216 913.799 155.008Z" fill="#E3E3E3"/>
<path d="M948.015 283.89H919.156V350.028H948.015V283.89Z" fill="#E3E3E3"/>
<path d="M869.872 251.649H836.969V350.04H869.872V251.649Z" fill="#E3E3E3"/>
<path d="M853.444 350.04H807.093V297.409L846.206 314.747L853.444 350.04Z" fill="#E3E3E3"/>
<path d="M1009.33 321.454H938.541V350.028H1009.33V321.454Z" fill="#E3E3E3"/>
<path d="M1024.3 235.954H983.178V350.04H1024.3V235.954Z" fill="#E3E3E3"/>
<path d="M1082.81 328.739H1014.69V350.04H1082.81V328.739Z" fill="#E3E3E3"/>
<path d="M1026.18 233.861H981.072V237.598H1026.18V233.861Z" fill="#E3E3E3"/>
<path d="M1018.79 217.764H1017.89V240.756H1018.79V217.764Z" fill="#E3E3E3"/>
<path d="M1012.78 220.673H1011.88V239.112H1012.78V220.673Z" fill="#E3E3E3"/>
<path d="M1039.53 278.935H1021.19V331.199H1047.34L1039.53 278.935Z" fill="#E3E3E3"/>
</svg>
