<svg width="308" height="216" viewBox="0 0 308 216" fill="none" xmlns="http://www.w3.org/2000/svg">
<path d="M157.302 215.542C166.565 215.542 174.075 208.069 174.075 198.851C174.075 189.632 166.565 182.159 157.302 182.159C148.038 182.159 140.528 189.632 140.528 198.851C140.528 208.069 148.038 215.542 157.302 215.542Z" fill="#FFCC33"/>
<path d="M190.119 54.4298C194.953 54.4298 198.871 50.5307 198.871 45.721C198.871 40.9113 194.953 37.0122 190.119 37.0122C185.286 37.0122 181.368 40.9113 181.368 45.721C181.368 50.5307 185.286 54.4298 190.119 54.4298Z" fill="#F2F2F2"/>
<path d="M150.009 150.227C154.842 150.227 158.76 146.328 158.76 141.518C158.76 136.708 154.842 132.809 150.009 132.809C145.176 132.809 141.258 136.708 141.258 141.518C141.258 146.328 145.176 150.227 150.009 150.227Z" fill="#F2F2F2"/>
<path d="M212.727 168.37C217.56 168.37 221.478 164.471 221.478 159.661C221.478 154.851 217.56 150.952 212.727 150.952C207.894 150.952 203.976 154.851 203.976 159.661C203.976 164.471 207.894 168.37 212.727 168.37Z" fill="#F2F2F2"/>
<path d="M155.505 24.6761C129.291 24.8603 107.826 46.0597 107.454 72.1448C107.451 72.3857 107.449 74.0791 107.449 76.2939C107.449 79.5414 108.746 82.6558 111.053 84.9522C113.361 87.2485 116.49 88.5388 119.754 88.5392H119.754C121.371 88.5388 122.973 88.2213 124.467 87.6047C125.962 86.9881 127.319 86.0845 128.462 84.9455C129.606 83.8066 130.512 82.4547 131.13 80.967C131.748 79.4793 132.065 77.885 132.064 76.2752C132.063 74.7685 132.062 73.7257 132.062 73.6617C132.061 69.6303 133.115 65.6681 135.12 62.1648C137.124 58.6616 140.011 55.738 143.495 53.6817C146.98 51.6253 150.942 50.507 154.993 50.4368C159.043 50.3666 163.042 51.3469 166.597 53.2813C170.151 55.2156 173.138 58.0374 175.264 61.4691C177.39 64.9007 178.582 68.824 178.722 72.853C178.862 76.882 177.946 80.878 176.064 84.4478C174.181 88.0176 171.398 91.0382 167.986 93.2127L167.991 93.2178C167.991 93.2178 150.478 104.437 145.138 119.829L145.143 119.83C144.204 122.983 143.728 126.254 143.73 129.543C143.73 130.895 143.81 142.723 143.965 152.323C144.019 155.635 145.379 158.794 147.752 161.117C150.126 163.44 153.322 164.742 156.651 164.741H156.651C158.323 164.741 159.98 164.412 161.524 163.772C163.068 163.133 164.47 162.196 165.65 161.015C166.829 159.834 167.762 158.433 168.395 156.892C169.027 155.352 169.348 153.701 169.338 152.037C169.284 143.245 169.255 133.008 169.255 132.265C169.255 122.814 178.417 113.397 185.942 107.257C194.608 100.186 200.844 90.5493 203.349 79.6793C203.903 77.4413 204.209 75.1496 204.26 72.8452C204.26 66.4901 202.997 60.1978 200.542 54.3309C198.088 48.4639 194.491 43.1383 189.959 38.6608C185.427 34.1833 180.049 30.6425 174.136 28.2423C168.223 25.8422 161.891 24.6302 155.505 24.6761Z" fill="#FFCC33"/>
<path d="M229.156 99.061C235.197 99.061 240.095 94.1872 240.095 88.175C240.095 82.1629 235.197 77.2891 229.156 77.2891C223.114 77.2891 218.217 82.1629 218.217 88.175C218.217 94.1872 223.114 99.061 229.156 99.061Z" fill="#2F2E41"/>
<path d="M208.942 211.235H204.472L202.345 194.076H208.943L208.942 211.235Z" fill="#FFB8B8"/>
<path d="M201.278 209.963H209.899V215.365H195.85C195.85 214.656 195.99 213.953 196.263 213.298C196.536 212.643 196.935 212.047 197.44 211.546C197.944 211.044 198.542 210.646 199.201 210.375C199.859 210.103 200.565 209.963 201.278 209.963Z" fill="#2F2E41"/>
<path d="M243.582 211.235H239.112L236.985 194.076H243.583L243.582 211.235Z" fill="#FFB8B8"/>
<path d="M235.919 209.963H244.54V215.365H230.49C230.49 214.656 230.631 213.953 230.903 213.298C231.176 212.643 231.576 212.047 232.08 211.546C232.584 211.044 233.183 210.646 233.841 210.375C234.5 210.103 235.206 209.963 235.919 209.963Z" fill="#2F2E41"/>
<path d="M227.493 99.1245C232.439 99.1245 236.449 95.1343 236.449 90.2122C236.449 85.29 232.439 81.2998 227.493 81.2998C222.547 81.2998 218.537 85.29 218.537 90.2122C218.537 95.1343 222.547 99.1245 227.493 99.1245Z" fill="#FFB8B8"/>
<path d="M232.831 127.876L236.839 118.714C237.812 116.564 238.091 114.167 237.637 111.854C237.183 109.54 236.019 107.423 234.304 105.796C233.952 105.449 233.578 105.126 233.185 104.827C231.208 103.288 228.771 102.449 226.26 102.443C224.573 102.449 222.906 102.818 221.374 103.524C221.243 103.582 221.115 103.644 220.984 103.706C220.733 103.825 220.485 103.956 220.244 104.09C218.674 104.987 217.338 106.239 216.344 107.744C215.349 109.249 214.724 110.966 214.519 112.756L212.751 127.502C212.306 128.66 196.437 170.462 201.987 202.376C202.046 202.717 202.213 203.03 202.463 203.27C202.714 203.509 203.035 203.663 203.38 203.708L209.006 204.47C209.417 204.526 209.834 204.425 210.173 204.187C210.511 203.949 210.747 203.593 210.833 203.189L220.273 158.408C220.332 158.129 220.483 157.879 220.702 157.696C220.92 157.513 221.194 157.408 221.48 157.399C221.766 157.389 222.046 157.475 222.277 157.643C222.508 157.811 222.675 158.051 222.753 158.324L236.091 205.417C236.186 205.759 236.391 206.061 236.675 206.276C236.959 206.491 237.306 206.607 237.663 206.607C237.769 206.606 237.875 206.597 237.98 206.578L244.853 205.261C245.253 205.187 245.61 204.966 245.855 204.643C246.1 204.321 246.215 203.918 246.177 203.515C245.167 192.307 239.799 136.16 232.831 127.876Z" fill="#272948"/>
<path d="M192.689 97.6287C192.627 98.1586 192.682 98.6955 192.851 99.2018C193.02 99.7081 193.298 100.171 193.667 100.559C194.035 100.946 194.484 101.249 194.983 101.445C195.481 101.641 196.017 101.726 196.552 101.694L201.558 113.666L205.345 108.08L200.01 97.5676C199.896 96.6766 199.458 95.8582 198.778 95.2674C198.099 94.6766 197.225 94.3544 196.322 94.3619C195.42 94.3695 194.551 94.7062 193.882 95.3083C193.212 95.9104 192.788 96.736 192.689 97.6287L192.689 97.6287Z" fill="#FFB8B8"/>
<path d="M226.996 139.931C227.529 139.867 228.041 139.689 228.496 139.407C228.951 139.126 229.339 138.748 229.632 138.301C229.925 137.855 230.116 137.35 230.191 136.821C230.267 136.293 230.225 135.755 230.069 135.245L240.602 127.611L234.261 125.248L225.231 132.859C224.387 133.177 223.689 133.792 223.27 134.588C222.851 135.383 222.74 136.304 222.957 137.175C223.175 138.047 223.706 138.809 224.451 139.317C225.195 139.824 226.101 140.043 226.996 139.931Z" fill="#FFB8B8"/>
<path d="M209.827 121.647C209.423 121.647 209.02 121.607 208.624 121.529C207.666 121.348 206.768 120.935 206.008 120.326C205.248 119.718 204.65 118.933 204.268 118.04L197.254 109.53C197.106 109.35 196.998 109.14 196.937 108.915C196.877 108.691 196.866 108.456 196.904 108.226C196.942 107.997 197.03 107.778 197.16 107.585C197.29 107.391 197.46 107.228 197.659 107.105L202.649 104.032C202.833 103.918 203.038 103.842 203.252 103.808C203.466 103.774 203.685 103.782 203.895 103.832C204.106 103.882 204.305 103.974 204.48 104.101C204.655 104.228 204.803 104.388 204.915 104.572L209.858 112.677L219.325 105.715C220.079 105.321 220.949 105.211 221.778 105.404C222.607 105.597 223.338 106.08 223.838 106.765C224.339 107.45 224.575 108.291 224.503 109.135C224.432 109.979 224.057 110.769 223.449 111.361L214 119.938C212.89 121.033 211.39 121.648 209.827 121.647Z" fill="#272948"/>
<path d="M235.406 134.447C235.393 134.447 235.381 134.447 235.368 134.446C235.138 134.441 234.911 134.387 234.703 134.289C234.495 134.191 234.31 134.05 234.16 133.876L229.724 128.726C229.573 128.551 229.461 128.345 229.396 128.124C229.33 127.902 229.313 127.669 229.344 127.44C229.376 127.211 229.456 126.992 229.58 126.796C229.703 126.6 229.867 126.433 230.06 126.305L238.367 120.794L230.841 111.79C230.403 111.064 230.243 110.205 230.389 109.371C230.535 108.536 230.977 107.782 231.636 107.246C232.295 106.709 233.125 106.427 233.976 106.45C234.827 106.472 235.641 106.799 236.27 107.37L245.416 116.264C246.136 116.919 246.685 117.737 247.017 118.649C247.349 119.562 247.454 120.541 247.322 121.502C247.191 122.463 246.826 123.379 246.261 124.169C245.695 124.959 244.946 125.601 244.076 126.04L236.6 133.934C236.447 134.096 236.262 134.225 236.056 134.313C235.851 134.401 235.63 134.446 235.406 134.447Z" fill="#272948"/>
<path d="M225.216 115.469C225.145 115.469 225.073 115.465 225.003 115.456C224.694 115.418 224.402 115.294 224.162 115.096C223.923 114.899 223.745 114.637 223.65 114.342L220.316 104.171C220.233 103.914 220.246 103.636 220.352 103.387C220.459 103.139 220.653 102.937 220.897 102.82L221.006 102.769C221.104 102.722 221.201 102.677 221.3 102.633C222.855 101.915 224.547 101.541 226.26 101.536C228.485 101.54 230.66 102.19 232.518 103.407C232.767 103.572 232.941 103.828 233.003 104.119C233.064 104.411 233.008 104.714 232.846 104.965L226.593 114.715C226.446 114.946 226.243 115.137 226.002 115.269C225.761 115.401 225.491 115.47 225.216 115.469Z" fill="#E6E6E6"/>
<path d="M237.781 83.3152C239.758 83.3152 241.36 81.7204 241.36 79.7531C241.36 77.7857 239.758 76.1909 237.781 76.1909C235.804 76.1909 234.201 77.7857 234.201 79.7531C234.201 81.7204 235.804 83.3152 237.781 83.3152Z" fill="#2F2E41"/>
<path d="M225.51 75.8374C222.995 75.8374 220.584 76.8314 218.806 78.6007C217.028 80.37 216.029 82.7697 216.029 85.2719V89.2634H220.963L223.322 85.2719L224.03 89.2634H239.001L234.99 85.2719C234.99 82.7697 233.992 80.37 232.214 78.6007C230.436 76.8314 228.024 75.8374 225.51 75.8374Z" fill="#2F2E41"/>
<path d="M239.62 77.313C240.016 76.0813 240.835 75.0279 241.935 74.3379C243.034 73.648 244.342 73.3658 245.63 73.5408C247.911 73.9204 249.714 75.7451 250.789 77.7831C251.864 79.8212 252.36 82.1021 253.082 84.2886C253.805 86.475 254.829 88.6733 256.653 90.0886C258.477 91.5039 261.276 91.8878 263.067 90.4319C262.862 91.9492 262.184 93.3642 261.127 94.4766C260.07 95.5889 258.688 96.3425 257.177 96.6306C255.666 96.9187 254.102 96.7268 252.707 96.0821C251.312 95.4373 250.155 94.3723 249.402 93.0377C248.456 91.3643 248.212 89.403 247.932 87.5037C247.652 85.6044 247.288 83.6392 246.159 82.0823C245.031 80.5254 242.918 79.5085 241.126 80.2177L239.62 77.313Z" fill="#2F2E41"/>
<path d="M123.228 82.7474C119.965 82.7471 116.835 81.4568 114.528 79.1604C112.22 76.8641 110.924 73.7496 110.924 70.5022C110.924 68.2873 110.925 66.5939 110.929 66.3531C111.032 58.7668 112.952 51.3145 116.529 44.6143C110.652 52.6201 107.421 62.2456 107.282 72.1589C107.279 72.3998 107.277 74.0932 107.277 76.308C107.278 79.5555 108.574 82.6699 110.881 84.9663C113.189 87.2627 116.318 88.5529 119.582 88.5533C122.263 88.5523 124.871 87.6803 127.009 86.0698C129.147 84.4592 130.699 82.1982 131.428 79.6302C129.175 81.6408 126.254 82.7511 123.228 82.7474Z" fill="#1B1400"/>
<path d="M156.339 50.4781C160.112 50.6574 163.784 51.7451 167.041 53.648C170.298 55.5509 173.043 58.212 175.039 61.4028C177.035 64.5937 178.223 68.2189 178.5 71.9673C178.778 75.7156 178.138 79.4751 176.634 82.923C178.809 80.381 180.408 77.4021 181.321 74.1896C182.235 70.977 182.441 67.6062 181.927 64.307C181.412 61.0078 180.189 57.8578 178.34 55.0718C176.492 52.2857 174.061 49.929 171.214 48.1625C168.367 46.396 165.171 45.2611 161.844 44.8352C158.516 44.4093 155.135 44.7025 151.932 45.6947C148.728 46.6869 145.778 48.3548 143.281 50.5847C140.784 52.8146 138.799 55.554 137.463 58.6163C139.773 55.912 142.676 53.7718 145.949 52.3608C149.222 50.9498 152.776 50.3056 156.339 50.4781Z" fill="#3F3D56"/>
<path d="M160.125 158.949C156.796 158.95 153.6 157.648 151.227 155.325C148.854 153.002 147.493 149.843 147.439 146.531C147.285 136.931 147.205 125.103 147.205 123.751C147.203 120.463 147.679 117.191 148.617 114.038L148.613 114.037C149.167 112.454 149.837 110.914 150.616 109.428C148.224 112.601 146.32 116.111 144.967 119.843L144.971 119.844C144.032 122.997 143.556 126.268 143.559 129.557C143.559 130.909 143.639 142.737 143.793 152.337C143.847 155.649 145.207 158.808 147.581 161.131C149.954 163.454 153.15 164.756 156.479 164.755C159.223 164.755 161.894 163.868 164.09 162.23C166.286 160.591 167.889 158.288 168.658 155.666C166.326 157.782 163.282 158.954 160.125 158.949Z" fill="#1B1400"/>
<path d="M46.1417 211.4L50.6118 211.4L52.7387 194.241L46.1406 194.241L46.1417 211.4Z" fill="#FFB8B8"/>
<path d="M59.2334 215.53L45.1837 215.531L45.1834 210.129L53.8049 210.129C55.2445 210.129 56.6253 210.698 57.6433 211.711C58.6614 212.724 59.2333 214.098 59.2334 215.53L59.2334 215.53Z" fill="#2F2E41"/>
<path d="M30.0978 211.4L34.5679 211.4L36.6948 194.241L30.0967 194.241L30.0978 211.4Z" fill="#FFB8B8"/>
<path d="M43.1895 215.53L29.1397 215.531L29.1395 210.129L37.7609 210.129C39.2006 210.129 40.5813 210.698 41.5994 211.711C42.6174 212.724 43.1894 214.098 43.1895 215.53L43.1895 215.53Z" fill="#2F2E41"/>
<path d="M34.0037 206.123L29.6371 205.894C29.412 205.882 29.1914 205.826 28.9882 205.729C28.785 205.632 28.6032 205.495 28.4533 205.328C28.3035 205.16 28.1885 204.964 28.1152 204.752C28.0418 204.54 28.0115 204.316 28.026 204.092L33.2449 146.59L57.2785 153.044L59.594 152.415L52.353 203.32C52.2913 203.702 52.1002 204.053 51.8113 204.313C51.5223 204.573 51.1528 204.728 50.7638 204.751L46.0567 204.969C45.8214 204.982 45.5859 204.946 45.3651 204.864C45.1443 204.782 44.943 204.655 44.774 204.492C44.6051 204.328 44.472 204.131 44.3833 203.914C44.2945 203.697 44.2521 203.463 44.2585 203.229L45.1114 172.677C45.1154 172.536 45.0661 172.398 44.9732 172.291C44.8803 172.184 44.7505 172.116 44.6094 172.1C44.4683 172.083 44.3262 172.12 44.211 172.203C44.0959 172.285 44.016 172.408 43.9872 172.546L35.7621 204.773C35.6844 205.156 35.4759 205.499 35.1721 205.746C34.8683 205.992 34.488 206.126 34.096 206.125C34.0654 206.125 34.0346 206.124 34.0037 206.123Z" fill="#2F2E41"/>
<path d="M46.9441 99.541C51.8903 99.541 55.9 95.5508 55.9 90.6287C55.9 85.7065 51.8903 81.7163 46.9441 81.7163C41.998 81.7163 37.9883 85.7065 37.9883 90.6287C37.9883 95.5508 41.998 99.541 46.9441 99.541Z" fill="#FFB8B8"/>
<path d="M32.0333 116.813L33.018 137.956L33.374 145.648C33.3882 145.983 33.5024 146.306 33.7021 146.576C33.9018 146.846 34.1779 147.05 34.495 147.163L57.5896 155.489C57.7762 155.558 57.9739 155.592 58.1729 155.59C58.4004 155.592 58.6257 155.547 58.8355 155.459C59.0453 155.372 59.2353 155.243 59.394 155.081C59.5527 154.919 59.677 154.727 59.7594 154.516C59.8417 154.305 59.8805 154.079 59.8735 153.853L58.9266 115.837C58.8644 112.718 57.7107 109.718 55.6643 107.355C53.6179 104.991 50.807 103.413 47.7163 102.891C47.493 102.857 47.2657 102.823 47.0384 102.793C45.1219 102.556 43.1766 102.74 41.3393 103.332C39.5019 103.924 37.8173 104.909 36.4038 106.218C34.9401 107.558 33.79 109.201 33.0348 111.032C32.2796 112.863 31.9377 114.836 32.0333 116.813L32.0333 116.813Z" fill="#3ABB75"/>
<path d="M68.6223 151.27C68.0761 151.101 67.5771 150.808 67.165 150.413C66.753 150.018 66.4394 149.533 66.2492 148.996C66.059 148.46 65.9975 147.886 66.0697 147.321C66.1418 146.757 66.3456 146.217 66.6647 145.745L58.833 135.381L65.5913 134.965L71.9923 144.87C72.6775 145.397 73.1544 146.148 73.3392 146.99C73.5239 147.832 73.4049 148.712 73.0028 149.475C72.6008 150.239 71.9415 150.837 71.1405 151.165C70.3395 151.493 69.448 151.53 68.6223 151.27H68.6223Z" fill="#FFB8B8"/>
<path d="M63.1153 143.869C62.9078 143.786 62.7191 143.662 62.56 143.505C62.401 143.348 62.2748 143.161 62.1887 142.956L50.3897 114.981C50.1582 114.433 50.0374 113.845 50.0342 113.251C50.0311 112.657 50.1456 112.068 50.3713 111.518C50.597 110.968 50.9295 110.467 51.3496 110.045C51.7698 109.623 52.2694 109.287 52.82 109.057C53.3706 108.827 53.9613 108.707 54.5584 108.705C55.1555 108.702 55.7473 108.816 56.2999 109.041C56.8525 109.266 57.3552 109.598 57.7791 110.016C58.2031 110.435 58.54 110.932 58.7706 111.48L70.5697 139.455C70.744 139.87 70.746 140.337 70.575 140.753C70.4041 141.169 70.0743 141.501 69.6579 141.675L64.4197 143.863C64.2135 143.95 63.992 143.995 63.7681 143.996C63.5442 143.997 63.3223 143.954 63.1153 143.869L63.1153 143.869Z" fill="#3ABB75"/>
<path d="M44.0644 142.882L55.3971 121.289C55.6156 120.873 55.9908 120.561 56.4402 120.421C56.8897 120.281 57.3767 120.323 57.7945 120.54L74.2439 129.089C74.6612 129.307 74.9748 129.68 75.1158 130.127C75.2569 130.575 75.2139 131.059 74.9963 131.475L63.6636 153.069C63.4451 153.484 63.0699 153.796 62.6205 153.936C62.171 154.077 61.684 154.034 61.2662 153.817L44.8168 145.268C44.3995 145.051 44.086 144.678 43.9449 144.23C43.8038 143.783 43.8468 143.298 44.0644 142.882Z" fill="#2F2E41"/>
<path d="M51.6647 133.017C51.4633 132.484 51.1395 132.006 50.7192 131.62C50.2989 131.234 49.7938 130.951 49.2441 130.794C48.6945 130.637 48.1155 130.609 47.5534 130.714C46.9913 130.819 46.4616 131.054 46.0067 131.399L35.1483 124.23L35.1299 130.969L45.444 136.743C46.0133 137.392 46.7943 137.822 47.65 137.955C48.5057 138.089 49.3814 137.919 50.1235 137.475C50.8657 137.03 51.4269 136.34 51.7087 135.525C51.9905 134.71 51.975 133.822 51.6647 133.017Z" fill="#FFB8B8"/>
<path d="M37.9362 134.532L29.0621 127.537C28.1021 127.216 27.2347 126.668 26.5343 125.941C25.8339 125.213 25.3214 124.327 25.0408 123.358C24.7603 122.39 24.7201 121.368 24.9236 120.381C25.1272 119.394 25.5684 118.471 26.2094 117.691L34.2669 107.182C34.8268 106.501 35.6143 106.044 36.4853 105.893C37.3564 105.742 38.2528 105.909 39.0108 106.361C39.7688 106.814 40.3377 107.524 40.6136 108.36C40.8894 109.195 40.8537 110.102 40.513 110.914L34.1377 121.292L43.5067 125.714C43.7245 125.817 43.918 125.965 44.0743 126.147C44.2305 126.33 44.3461 126.544 44.4132 126.774C44.4804 127.005 44.4976 127.247 44.4638 127.484C44.43 127.722 44.3459 127.95 44.2171 128.153L40.4351 134.109C40.3073 134.31 40.1384 134.482 39.9395 134.614C39.7406 134.746 39.5161 134.835 39.2804 134.875C39.2711 134.876 39.2617 134.878 39.2522 134.879C39.0207 134.914 38.7845 134.901 38.5581 134.841C38.3318 134.782 38.1201 134.677 37.9362 134.532Z" fill="#3ABB75"/>
<path d="M40.1765 96.5967C40.1381 96.4848 40.1259 96.3657 40.1409 96.2484C40.1559 96.1311 40.1976 96.0188 40.263 95.9201C40.3283 95.8214 40.4155 95.7388 40.5178 95.6788C40.6202 95.6188 40.7349 95.5828 40.8534 95.5738C41.096 95.5869 41.3333 95.6488 41.5512 95.7558C41.769 95.8627 41.9628 96.0125 42.1209 96.1961C42.445 96.568 42.8224 96.8904 43.2408 97.153C43.674 97.3703 44.2616 97.3393 44.5086 96.925C44.7405 96.536 44.5816 96.0149 44.4412 95.563C44.0839 94.4132 43.884 93.2208 43.8468 92.0178C43.8064 90.6751 43.9968 89.2738 44.7437 88.2266C45.7078 86.875 47.4316 86.3619 49.063 86.3991C50.6944 86.4363 52.2994 86.9374 53.9153 87.2542C54.4732 87.3636 55.1289 87.4195 55.502 86.9892C55.8988 86.5317 55.7531 85.7913 55.5843 85.1735C55.1464 83.5706 54.6818 81.9133 53.6644 80.6188C52.5643 79.2736 50.9929 78.3932 49.2666 78.1548C47.6092 77.9505 45.9268 78.1406 44.3577 78.7094C41.8012 79.5113 39.5516 81.0708 37.9099 83.1794C36.2175 85.4219 35.4862 88.2399 35.8759 91.0174C36.2566 93.4365 37.5448 95.622 39.4806 97.1334L40.1765 96.5967Z" fill="#2F2E41"/>
<path d="M153.606 211.471C151.224 210.438 149.115 208.869 147.446 206.886C145.777 204.903 144.594 202.562 143.991 200.046C143.387 197.53 143.379 194.91 143.968 192.391C144.556 189.871 145.725 187.523 147.382 185.53C145.461 186.926 143.86 188.712 142.686 190.771C141.512 192.829 140.791 195.113 140.572 197.469C140.352 199.826 140.639 202.203 141.413 204.441C142.186 206.679 143.43 208.728 145.06 210.451C146.69 212.174 148.67 213.533 150.869 214.437C153.067 215.34 155.433 215.769 157.811 215.693C160.188 215.617 162.522 215.038 164.657 213.996C166.793 212.954 168.681 211.472 170.197 209.648C167.833 211.367 165.057 212.441 162.146 212.761C159.235 213.08 156.291 212.636 153.606 211.471Z" fill="#1B1400"/>
</svg>
